<?xml version="1.0" encoding="utf-8"?>
<!-- Generator: Adobe Illustrator 17.1.0, SVG Export Plug-In . SVG Version: 6.00 Build 0)  -->
<!DOCTYPE svg PUBLIC "-//W3C//DTD SVG 1.1//EN" "http://www.w3.org/Graphics/SVG/1.1/DTD/svg11.dtd">
<svg version="1.1" id="Layer_1" xmlns="http://www.w3.org/2000/svg" xmlns:xlink="http://www.w3.org/1999/xlink" x="0px" y="0px"
	 viewBox="0 0 1918.8 407.5" enable-background="new 0 0 1918.8 407.5" xml:space="preserve">
<rect x="-1" y="0" fill="#231F20" width="1921.4" height="407.5"/>
<g opacity="0.5">
	<defs>
		<rect id="SVGID_1_" x="0" y="-0.9" opacity="0.5" width="1918.8" height="408.4"/>
	</defs>
	<clipPath id="SVGID_2_">
		<use xlink:href="#SVGID_1_"  overflow="visible"/>
	</clipPath>
	
		<line clip-path="url(#SVGID_2_)" fill="none" stroke="#010101" stroke-width="13.6595" stroke-miterlimit="10" x1="-11.1" y1="-510.8" x2="-1304.8" y2="917.5"/>
	
		<line clip-path="url(#SVGID_2_)" fill="none" stroke="#010101" stroke-width="13.6595" stroke-miterlimit="10" x1="108.1" y1="-510.8" x2="-1185.7" y2="917.5"/>
	
		<line clip-path="url(#SVGID_2_)" fill="none" stroke="#010101" stroke-width="13.6595" stroke-miterlimit="10" x1="227.3" y1="-510.8" x2="-1066.5" y2="917.5"/>
	
		<line clip-path="url(#SVGID_2_)" fill="none" stroke="#010101" stroke-width="13.6595" stroke-miterlimit="10" x1="346.4" y1="-510.8" x2="-947.3" y2="917.5"/>
	
		<line clip-path="url(#SVGID_2_)" fill="none" stroke="#010101" stroke-width="13.6595" stroke-miterlimit="10" x1="465.6" y1="-510.8" x2="-828.2" y2="917.5"/>
	
		<line clip-path="url(#SVGID_2_)" fill="none" stroke="#010101" stroke-width="13.6595" stroke-miterlimit="10" x1="584.8" y1="-510.8" x2="-709" y2="917.5"/>
	
		<line clip-path="url(#SVGID_2_)" fill="none" stroke="#010101" stroke-width="13.6595" stroke-miterlimit="10" x1="703.9" y1="-510.8" x2="-589.8" y2="917.5"/>
	
		<line clip-path="url(#SVGID_2_)" fill="none" stroke="#010101" stroke-width="13.6595" stroke-miterlimit="10" x1="823.1" y1="-510.8" x2="-470.6" y2="917.5"/>
	
		<line clip-path="url(#SVGID_2_)" fill="none" stroke="#010101" stroke-width="13.6595" stroke-miterlimit="10" x1="942.3" y1="-510.8" x2="-351.5" y2="917.5"/>
	
		<line clip-path="url(#SVGID_2_)" fill="none" stroke="#010101" stroke-width="13.6595" stroke-miterlimit="10" x1="1061.4" y1="-510.8" x2="-232.3" y2="917.5"/>
	
		<line clip-path="url(#SVGID_2_)" fill="none" stroke="#010101" stroke-width="13.6595" stroke-miterlimit="10" x1="1180.6" y1="-510.8" x2="-113.1" y2="917.5"/>
	
		<line clip-path="url(#SVGID_2_)" fill="none" stroke="#010101" stroke-width="13.6595" stroke-miterlimit="10" x1="1299.8" y1="-510.8" x2="6" y2="917.5"/>
	
		<line clip-path="url(#SVGID_2_)" fill="none" stroke="#010101" stroke-width="13.6595" stroke-miterlimit="10" x1="1418.9" y1="-510.8" x2="125.2" y2="917.5"/>
	
		<line clip-path="url(#SVGID_2_)" fill="none" stroke="#010101" stroke-width="13.6595" stroke-miterlimit="10" x1="1538.1" y1="-510.8" x2="244.4" y2="917.5"/>
	
		<line clip-path="url(#SVGID_2_)" fill="none" stroke="#010101" stroke-width="13.6595" stroke-miterlimit="10" x1="1657.3" y1="-510.8" x2="363.5" y2="917.5"/>
	
		<line clip-path="url(#SVGID_2_)" fill="none" stroke="#010101" stroke-width="13.6595" stroke-miterlimit="10" x1="1776.5" y1="-510.8" x2="482.7" y2="917.5"/>
	
		<line clip-path="url(#SVGID_2_)" fill="none" stroke="#010101" stroke-width="13.6595" stroke-miterlimit="10" x1="1895.6" y1="-510.8" x2="601.9" y2="917.5"/>
	
		<line clip-path="url(#SVGID_2_)" fill="none" stroke="#010101" stroke-width="13.6595" stroke-miterlimit="10" x1="2014.8" y1="-510.8" x2="721" y2="917.5"/>
	
		<line clip-path="url(#SVGID_2_)" fill="none" stroke="#010101" stroke-width="13.6595" stroke-miterlimit="10" x1="2134" y1="-510.8" x2="840.2" y2="917.5"/>
	
		<line clip-path="url(#SVGID_2_)" fill="none" stroke="#010101" stroke-width="13.6595" stroke-miterlimit="10" x1="2253.1" y1="-510.8" x2="959.4" y2="917.5"/>
	
		<line clip-path="url(#SVGID_2_)" fill="none" stroke="#010101" stroke-width="13.6595" stroke-miterlimit="10" x1="2372.3" y1="-510.8" x2="1078.6" y2="917.5"/>
	
		<line clip-path="url(#SVGID_2_)" fill="none" stroke="#010101" stroke-width="13.6595" stroke-miterlimit="10" x1="2491.5" y1="-510.8" x2="1197.7" y2="917.5"/>
	
		<line clip-path="url(#SVGID_2_)" fill="none" stroke="#010101" stroke-width="13.6595" stroke-miterlimit="10" x1="2610.6" y1="-510.8" x2="1316.9" y2="917.5"/>
	
		<line clip-path="url(#SVGID_2_)" fill="none" stroke="#010101" stroke-width="13.6595" stroke-miterlimit="10" x1="2729.8" y1="-510.8" x2="1436.1" y2="917.5"/>
	
		<line clip-path="url(#SVGID_2_)" fill="none" stroke="#010101" stroke-width="13.6595" stroke-miterlimit="10" x1="2849" y1="-510.8" x2="1555.2" y2="917.5"/>
	
		<line clip-path="url(#SVGID_2_)" fill="none" stroke="#010101" stroke-width="13.6595" stroke-miterlimit="10" x1="2968.2" y1="-510.8" x2="1674.4" y2="917.5"/>
	
		<line clip-path="url(#SVGID_2_)" fill="none" stroke="#010101" stroke-width="13.6595" stroke-miterlimit="10" x1="3087.3" y1="-510.8" x2="1793.6" y2="917.5"/>
	
		<line clip-path="url(#SVGID_2_)" fill="none" stroke="#010101" stroke-width="13.6595" stroke-miterlimit="10" x1="3206.5" y1="-510.8" x2="1912.7" y2="917.5"/>
	
		<line clip-path="url(#SVGID_2_)" fill="none" stroke="#010101" stroke-width="13.6595" stroke-miterlimit="10" x1="3325.7" y1="-510.8" x2="2031.9" y2="917.5"/>
	
		<line clip-path="url(#SVGID_2_)" fill="none" stroke="#010101" stroke-width="13.6595" stroke-miterlimit="10" x1="3444.8" y1="-510.8" x2="2151.1" y2="917.5"/>
	
		<line clip-path="url(#SVGID_2_)" fill="none" stroke="#010101" stroke-width="13.6595" stroke-miterlimit="10" x1="3564" y1="-510.8" x2="2270.3" y2="917.5"/>
	
		<line clip-path="url(#SVGID_2_)" fill="none" stroke="#010101" stroke-width="13.6595" stroke-miterlimit="10" x1="3683.2" y1="-510.8" x2="2389.4" y2="917.5"/>
	<use xlink:href="#SVGID_1_"  overflow="visible" fill="none" stroke="#010101" stroke-width="1.0507" stroke-miterlimit="10"/>
</g>
<rect x="521.1" y="129.6" fill="#3CBFEF" width="872.2" height="125.1"/>
<rect x="537.7" y="145.8" fill="#FFFFFF" width="872.2" height="125.1"/>
<g>
	<g>
		<path fill="#231F20" d="M632.6,193.9c-0.2-0.6,0.2-1.1,0.8-1.1h5.2c0.4,0,0.7,0.3,0.8,0.6l3.8,15.1h0.2l6.9-15.6
			c0.1-0.3,0.4-0.5,0.8-0.5h0.8c0.4,0,0.7,0.2,0.8,0.5l6.9,15.6h0.2l3.8-15.1c0.1-0.3,0.4-0.6,0.8-0.6h5.2c0.6,0,1,0.4,0.8,1.1
			l-8.4,29.9c-0.1,0.4-0.4,0.6-0.8,0.6h-0.7c-0.3,0-0.6-0.2-0.8-0.5l-8.1-18.2h-0.1l-8.1,18.2c-0.1,0.3-0.4,0.5-0.8,0.5h-0.7
			c-0.4,0-0.7-0.3-0.8-0.6L632.6,193.9z"/>
		<path fill="#231F20" d="M683.4,193.7c0-0.4,0.4-0.8,0.8-0.8h5.3c0.5,0,0.8,0.4,0.8,0.8v11.2h12.7v-11.2c0-0.4,0.4-0.8,0.8-0.8h5.3
			c0.4,0,0.8,0.4,0.8,0.8v29.4c0,0.4-0.4,0.8-0.8,0.8h-5.3c-0.5,0-0.8-0.4-0.8-0.8v-11.7h-12.7v11.7c0,0.4-0.4,0.8-0.8,0.8h-5.3
			c-0.4,0-0.8-0.4-0.8-0.8V193.7z"/>
		<path fill="#231F20" d="M722.5,222.8l13.9-29.9c0.1-0.3,0.4-0.5,0.8-0.5h0.4c0.3,0,0.6,0.2,0.8,0.5l13.9,29.9
			c0.3,0.6-0.1,1.2-0.8,1.2h-4.9c-0.8,0-1.2-0.3-1.6-1.1l-1.6-3.5h-12.1l-1.6,3.6c-0.2,0.5-0.7,1.1-1.6,1.1h-4.9
			C722.6,223.9,722.2,223.3,722.5,222.8z M740.7,213.3l-3.4-7.3h0l-3.3,7.3H740.7z"/>
		<path fill="#231F20" d="M767.4,199.4h-6.4c-0.5,0-0.8-0.4-0.8-0.8v-4.8c0-0.4,0.4-0.8,0.8-0.8h19.7c0.5,0,0.8,0.4,0.8,0.8v4.8
			c0,0.4-0.4,0.8-0.8,0.8h-6.4v23.7c0,0.4-0.4,0.8-0.8,0.8h-5.3c-0.4,0-0.8-0.4-0.8-0.8V199.4z"/>
		<path fill="#231F20" d="M796.5,192.4c2.3,0,4.3,1.6,4.3,5.2c0,4-1.6,6.9-3.2,9.2c-0.3,0.4-0.6,0.3-1,0l-1.4-1
			c-0.4-0.2-0.3-0.7,0-1.1c1.1-1.6,2.2-3.6,2.2-5.4c0-0.1,0-0.2,0-0.4c-0.4,0.3-1,0.4-1.6,0.4c-2,0-3-1.6-3-3.5
			C792.7,193.9,794.4,192.4,796.5,192.4z"/>
		<path fill="#231F20" d="M813.4,220.9c-0.4-0.4-0.5-0.8-0.2-1.3l2-3.6c0.4-0.6,1.1-0.6,1.5-0.3c1.2,0.8,3.5,2.4,6.3,2.4
			c1.8,0,3.1-1.1,3.1-2.7c0-1.9-1.6-3.1-4.6-4.5c-4.3-2.1-8.6-4.5-8.6-9.8c0-4.4,3.4-8.8,10.3-8.8c4.6,0,8.2,2.4,9.5,3.3
			c0.5,0.3,0.4,1.1,0.3,1.4l-2.3,3.4c-0.3,0.5-1.1,0.8-2,0.3c-1-0.7-3.6-2.4-6-2.4c-1.9,0-2.7,1.2-2.7,2.4c0,1.5,1.7,2.6,4.8,4.1
			c3.9,1.9,9,4.1,9,10.1c0,4.6-4,9.2-10.5,9.2C817.6,224.4,814.4,222,813.4,220.9z"/>
		<path fill="#231F20" d="M873.9,209l-9.8-14.8c-0.4-0.6,0-1.3,0.7-1.3h5.8c0.4,0,0.6,0.2,0.7,0.4l6.2,9.1l6.2-9.1
			c0.1-0.2,0.3-0.4,0.7-0.4h5.8c0.7,0,1.1,0.7,0.7,1.3l-10,14.8v14.2c0,0.4-0.4,0.8-0.8,0.8h-5.3c-0.5,0-0.8-0.4-0.8-0.8V209z"/>
		<path fill="#231F20" d="M916,192.4c8.9,0,16,7.2,16,16c0,8.9-7.1,15.9-16,15.9s-16-7.1-16-15.9C900,199.5,907.1,192.4,916,192.4z
			 M916,217.3c4.9,0,8.9-4,8.9-8.8c0-4.9-4-8.9-8.9-8.9c-4.8,0-8.8,4-8.8,8.9C907.1,213.3,911.1,217.3,916,217.3z"/>
		<path fill="#231F20" d="M945.8,193.7c0-0.4,0.4-0.8,0.8-0.8h5.5c0.5,0,0.8,0.4,0.8,0.8v18.5c0,3.2,2.3,5.1,5.5,5.1
			c3.2,0,5.6-1.8,5.6-5.1v-18.5c0-0.4,0.4-0.8,0.8-0.8h5.5c0.4,0,0.8,0.4,0.8,0.8v18.9c0,6.8-5.7,11.8-12.7,11.8
			c-7,0-12.6-5.1-12.6-11.8V193.7z"/>
		<path fill="#231F20" d="M986.7,193.7c0-0.4,0.4-0.8,0.8-0.8h13.3c5.6,0,9.7,4.3,9.7,9.6c0,4.1-2.4,7.4-6.6,8.9l6.1,11.3
			c0.3,0.6,0,1.3-0.8,1.3h-5.9c-0.4,0-0.6-0.2-0.7-0.4l-5.9-11.8h-3.1v11.3c0,0.4-0.4,0.8-0.8,0.8h-5.3c-0.5,0-0.8-0.4-0.8-0.8
			V193.7z M1000.2,206.1c1.8,0,3.4-1.5,3.4-3.6s-1.6-3.4-3.4-3.4h-6.6v6.9H1000.2z"/>
		<path fill="#231F20" d="M1058.7,192.4c8.9,0,16,7.2,16,16c0,8.9-7.1,15.9-16,15.9c-8.9,0-16-7.1-16-15.9
			C1042.7,199.5,1049.8,192.4,1058.7,192.4z M1058.7,217.3c4.9,0,8.9-4,8.9-8.8c0-4.9-4-8.9-8.9-8.9c-4.8,0-8.8,4-8.8,8.9
			C1049.9,213.3,1053.9,217.3,1058.7,217.3z"/>
		<path fill="#231F20" d="M1106.8,193.3c0.1-0.2,0.4-0.5,0.8-0.5h5.9c0.7,0,1,0.6,0.8,1.2l-14,29.9c-0.1,0.3-0.4,0.5-0.8,0.5h-0.4
			c-0.4,0-0.6-0.2-0.8-0.5l-13.9-29.9c-0.3-0.6,0.1-1.2,0.8-1.2h5.9c0.4,0,0.7,0.3,0.8,0.5l7.3,16.2h0.3L1106.8,193.3z"/>
		<path fill="#231F20" d="M1126.6,193.7c0-0.4,0.4-0.8,0.8-0.8h18.4c0.5,0,0.8,0.4,0.8,0.8v4.8c0,0.4-0.4,0.8-0.8,0.8h-12.3v5.5
			h10.1c0.4,0,0.8,0.4,0.8,0.8v4.8c0,0.5-0.4,0.8-0.8,0.8h-10.1v6h12.3c0.5,0,0.8,0.4,0.8,0.8v4.8c0,0.4-0.4,0.8-0.8,0.8h-18.4
			c-0.5,0-0.8-0.4-0.8-0.8V193.7z"/>
		<path fill="#231F20" d="M1161.1,193.7c0-0.4,0.4-0.8,0.8-0.8h13.3c5.6,0,9.7,4.3,9.7,9.6c0,4.1-2.4,7.4-6.6,8.9l6.1,11.3
			c0.3,0.6,0,1.3-0.8,1.3h-5.9c-0.4,0-0.6-0.2-0.7-0.4l-5.9-11.8h-3.1v11.3c0,0.4-0.4,0.8-0.8,0.8h-5.3c-0.5,0-0.8-0.4-0.8-0.8
			V193.7z M1174.7,206.1c1.8,0,3.4-1.5,3.4-3.6s-1.6-3.4-3.4-3.4h-6.6v6.9H1174.7z"/>
		<path fill="#231F20" d="M1199.4,193.7c0-0.4,0.4-0.8,0.8-0.8h5.3c0.4,0,0.8,0.4,0.8,0.8v23.7h10.6c0.5,0,0.8,0.4,0.8,0.8v4.8
			c0,0.4-0.4,0.8-0.8,0.8h-16.7c-0.5,0-0.8-0.4-0.8-0.8V193.7z"/>
		<path fill="#231F20" d="M1227.5,222.8l13.9-29.9c0.1-0.3,0.4-0.5,0.8-0.5h0.4c0.3,0,0.6,0.2,0.8,0.5l13.9,29.9
			c0.3,0.6-0.1,1.2-0.8,1.2h-4.9c-0.8,0-1.2-0.3-1.6-1.1l-1.6-3.5h-12.1l-1.6,3.6c-0.2,0.5-0.7,1.1-1.6,1.1h-4.9
			C1227.6,223.9,1227.2,223.3,1227.5,222.8z M1245.7,213.3l-3.4-7.3h0l-3.3,7.3H1245.7z"/>
		<path fill="#231F20" d="M1269.6,193.7c0-0.4,0.4-0.8,0.8-0.8h10.7c5.9,0,10,4.4,10,9.8c0,5.5-4.1,10-9.9,10h-4.7v10.4
			c0,0.4-0.4,0.8-0.8,0.8h-5.2c-0.5,0-0.8-0.4-0.8-0.8V193.7z M1281,206.2c1.9,0,3.2-1.5,3.2-3.5c0-1.9-1.3-3.3-3.2-3.3h-4.5v6.8
			H1281z"/>
		<path fill="#231F20" d="M1308.2,211v-1.9c0-3.7,6.1-5.4,6.1-8.2c0-1.4-1.4-2.6-3.3-2.6c-3.1,0-4,2.8-5.1,1.8l-2.7-2.7
			c-0.4-0.3-0.3-0.8,0-1.2c0,0,3.3-3.9,9-3.9c4.7,0,9.1,3.3,9.1,7.8c0,5.9-6.7,6-6.7,10.8c0,0.5-0.4,0.8-0.8,0.8h-4.8
			C1308.6,211.8,1308.2,211.5,1308.2,211z M1311.4,215.9c2.3,0,4.3,2,4.3,4.3c0,2.3-2,4.2-4.3,4.2c-2.3,0-4.2-1.9-4.2-4.2
			C1307.2,217.9,1309.1,215.9,1311.4,215.9z"/>
	</g>
</g>
</svg>
